<svg width="118" height="87" viewBox="0 0 118 87" fill="none" xmlns="http://www.w3.org/2000/svg">
<path d="M67.7815 86.48C65.8188 86.48 63.9415 85.8827 62.1495 84.688C60.3575 83.5787 58.8642 82.128 57.6695 80.336C56.5602 78.544 56.0055 76.752 56.0055 74.96C56.0055 72.912 56.8588 70.736 58.5655 68.432C60.2722 66.128 62.2775 63.8667 64.5815 61.648C66.9708 59.344 69.0615 57.3813 70.8535 55.76H17.9895C13.1255 55.76 9.6695 55.376 7.6215 54.608C5.5735 53.84 3.95217 52.56 2.7575 50.768C1.56283 49.0613 0.9655 46.672 0.9655 43.6C0.9655 40.528 1.52017 38.1387 2.6295 36.432C3.82417 34.7253 5.4455 33.4453 7.4935 32.592C9.5415 31.824 13.0402 31.44 17.9895 31.44H70.8535L64.5815 25.424C61.0828 22.0107 58.7788 19.408 57.6695 17.616C56.5602 15.7387 56.0055 13.9467 56.0055 12.24C56.0055 10.448 56.5602 8.656 57.6695 6.864C58.7788 5.072 60.2295 3.62133 62.0215 2.51199C63.8988 1.31733 65.8188 0.719994 67.7815 0.719994C69.4882 0.719994 71.3228 1.27466 73.2855 2.384C75.2482 3.408 77.5522 5.2 80.1975 7.75999L117.062 43.6L80.9655 78.672C77.8935 81.5733 75.3762 83.5787 73.4135 84.688C71.4508 85.8827 69.5735 86.48 67.7815 86.48Z" fill="#50FA7B"/>
</svg>
